<svg width="17" height="17" viewBox="0 0 17 17" fill="none" xmlns="http://www.w3.org/2000/svg">
<path fill-rule="evenodd" clip-rule="evenodd" d="M4.2333 2.63335C3.93875 2.63335 3.69997 2.87213 3.69997 3.16668V13.8333C3.69997 14.1279 3.93875 14.3667 4.2333 14.3667H12.7666C13.0611 14.3667 13.3 14.1279 13.3 13.8333V5.52093L10.4124 2.63335H4.2333ZM2.6333 3.16668C2.6333 2.28302 3.34964 1.56668 4.2333 1.56668H10.6333C10.7748 1.56668 10.9104 1.62287 11.0104 1.72289L14.1323 4.84478C14.2824 4.99482 14.3666 5.1983 14.3666 5.41047V13.8333C14.3666 14.717 13.6503 15.4333 12.7666 15.4333H4.2333C3.34964 15.4333 2.6333 14.717 2.6333 13.8333V3.16668ZM5.56663 8.50001C5.56663 8.20547 5.80542 7.96668 6.09997 7.96668H7.96663V6.10001C7.96663 5.80547 8.20542 5.56668 8.49997 5.56668C8.79452 5.56668 9.0333 5.80547 9.0333 6.10001V7.96668H10.9C11.1945 7.96668 11.4333 8.20547 11.4333 8.50001C11.4333 8.79456 11.1945 9.03335 10.9 9.03335H9.0333V10.9C9.0333 11.1945 8.79452 11.4333 8.49997 11.4333C8.20542 11.4333 7.96663 11.1945 7.96663 10.9V9.03335H6.09997C5.80542 9.03335 5.56663 8.79456 5.56663 8.50001Z" fill="#0091FF"/>
</svg>
