<svg width="17" height="17" viewBox="0 0 17 17" fill="none" xmlns="http://www.w3.org/2000/svg">
<path fill-rule="evenodd" clip-rule="evenodd" d="M4.2333 2.63332C3.93875 2.63332 3.69997 2.8721 3.69997 3.16665V13.8333C3.69997 14.1278 3.93875 14.3667 4.2333 14.3667H12.7666C13.0611 14.3667 13.3 14.1278 13.3 13.8333V5.5209L10.4124 2.63332H4.2333ZM2.6333 3.16665C2.6333 2.28299 3.34964 1.56665 4.2333 1.56665H10.6333C10.7748 1.56665 10.9104 1.62284 11.0104 1.72286L14.1323 4.84475C14.2824 4.99479 14.3666 5.19827 14.3666 5.41044V13.8333C14.3666 14.7169 13.6503 15.4333 12.7666 15.4333H4.2333C3.34964 15.4333 2.6333 14.7169 2.6333 13.8333V3.16665ZM5.56663 8.49998C5.56663 8.20543 5.80542 7.96665 6.09997 7.96665H7.96663V6.09998C7.96663 5.80543 8.20542 5.56665 8.49997 5.56665C8.79452 5.56665 9.0333 5.80543 9.0333 6.09998V7.96665H10.9C11.1945 7.96665 11.4333 8.20543 11.4333 8.49998C11.4333 8.79453 11.1945 9.03332 10.9 9.03332H9.0333V10.9C9.0333 11.1945 8.79452 11.4333 8.49997 11.4333C8.20542 11.4333 7.96663 11.1945 7.96663 10.9V9.03332H6.09997C5.80542 9.03332 5.56663 8.79453 5.56663 8.49998Z" fill="#C1C8CD"/>
</svg>
