<svg width="16" height="16" viewBox="0 0 16 16" fill="none" xmlns="http://www.w3.org/2000/svg">
<path fill-rule="evenodd" clip-rule="evenodd" d="M3.7333 2.13332C3.43875 2.13332 3.19997 2.3721 3.19997 2.66665V13.3333C3.19997 13.6278 3.43875 13.8667 3.7333 13.8667H12.2666C12.5611 13.8667 12.8 13.6278 12.8 13.3333V5.0209L9.91238 2.13332H3.7333ZM2.1333 2.66665C2.1333 1.78299 2.84964 1.06665 3.7333 1.06665H10.1333C10.2748 1.06665 10.4104 1.12284 10.5104 1.22286L13.6323 4.34475C13.7824 4.49479 13.8666 4.69827 13.8666 4.91044V13.3333C13.8666 14.2169 13.1503 14.9333 12.2666 14.9333H3.7333C2.84964 14.9333 2.1333 14.2169 2.1333 13.3333V2.66665ZM5.06663 7.99998C5.06663 7.70543 5.30542 7.46665 5.59997 7.46665H7.46663V5.59998C7.46663 5.30543 7.70542 5.06665 7.99997 5.06665C8.29452 5.06665 8.5333 5.30543 8.5333 5.59998V7.46665H10.4C10.6945 7.46665 10.9333 7.70543 10.9333 7.99998C10.9333 8.29453 10.6945 8.53332 10.4 8.53332H8.5333V10.4C8.5333 10.6945 8.29452 10.9333 7.99997 10.9333C7.70542 10.9333 7.46663 10.6945 7.46663 10.4V8.53332H5.59997C5.30542 8.53332 5.06663 8.29453 5.06663 7.99998Z" fill="#EDF6FF"/>
</svg>
