<svg width="20" height="20" viewBox="0 0 20 20" fill="none" xmlns="http://www.w3.org/2000/svg">
<path opacity="0.4" d="M18.2082 9.5083L17.6915 15.1583C17.5165 16.825 16.8332 18.525 13.1665 18.525H6.8165C3.14984 18.525 2.4665 16.825 2.29984 15.1666L1.7915 9.74163C1.79984 9.74997 1.80817 9.7583 1.82484 9.76663C2.10817 9.94997 2.38317 10.1333 2.68317 10.3C2.79984 10.375 2.92484 10.4416 3.04984 10.5083C3.9915 11.025 4.99984 11.4333 6.0415 11.7166C6.45817 11.8416 6.88317 11.9333 7.3165 12.0083C7.48317 13.3416 8.62484 14.375 9.99984 14.375C11.3915 14.375 12.5415 13.3166 12.6915 11.9583V11.95C13.1165 11.8666 13.5415 11.7583 13.9582 11.6333C14.9998 11.3083 16.0082 10.875 16.9498 10.325C16.9998 10.3 17.0415 10.275 17.0748 10.25C17.4582 10.0416 17.8248 9.79997 18.1748 9.54997C18.1915 9.54163 18.1998 9.52497 18.2082 9.5083Z" fill="#6E56CF"/>
<path d="M17.5749 5.81664C16.8665 5.03331 15.6915 4.64164 13.9665 4.64164H13.7665V4.60831C13.7665 3.20831 13.7665 1.47498 10.6332 1.47498H9.36653C6.2332 1.47498 6.2332 3.20831 6.2332 4.60831V4.64164H6.0332C4.3082 4.64164 3.12487 5.03331 2.42487 5.81664C1.59987 6.74164 1.62487 7.96664 1.7082 8.80831L1.71654 8.86664L1.79154 9.74164C1.79987 9.74998 1.81654 9.75831 1.8332 9.76664C2.11654 9.94998 2.39154 10.1333 2.69154 10.3C2.8082 10.375 2.9332 10.4416 3.0582 10.5083C3.99987 11.025 5.0082 11.4333 6.04153 11.7166C6.06653 13.875 7.8332 15.625 9.99987 15.625C12.1832 15.625 13.9582 13.85 13.9582 11.6666V11.6333C15.0082 11.3166 16.0165 10.875 16.9582 10.325C17.0082 10.3 17.0415 10.275 17.0832 10.25C17.4665 10.0416 17.8332 9.79998 18.1832 9.54998C18.1915 9.54164 18.2082 9.52497 18.2165 9.50831L18.2499 9.20831L18.2915 8.81664C18.2999 8.76664 18.2999 8.72497 18.3082 8.66664C18.3749 7.83331 18.3582 6.68331 17.5749 5.81664ZM7.42487 4.60831C7.42487 3.19164 7.42487 2.65831 9.36653 2.65831H10.6332C12.5749 2.65831 12.5749 3.19164 12.5749 4.60831V4.64164H7.42487V4.60831ZM9.99987 14.375C8.62487 14.375 7.4832 13.3416 7.31653 12.0083C7.29987 11.9 7.29153 11.7833 7.29153 11.6666C7.29153 10.175 8.5082 8.95831 9.99987 8.95831C11.4915 8.95831 12.7082 10.175 12.7082 11.6666C12.7082 11.7666 12.6999 11.8583 12.6915 11.95V11.9583C12.5415 13.3166 11.3915 14.375 9.99987 14.375Z" fill="#6E56CF"/>
<path d="M9.52507 13.3583C9.36673 13.3583 9.2084 13.3 9.0834 13.175L8.2584 12.3583C8.01673 12.1166 8.01673 11.7166 8.2584 11.475C8.50007 11.2333 8.90007 11.2333 9.14173 11.475L9.54173 11.875L10.8834 10.6416C11.1334 10.4083 11.5334 10.425 11.7667 10.675C12.0001 10.925 11.9834 11.325 11.7334 11.5583L9.9584 13.2C9.82507 13.3 9.67507 13.3583 9.52507 13.3583Z" fill="#6E56CF"/>
</svg>
