<svg width="16" height="16" viewBox="0 0 16 16" fill="none" xmlns="http://www.w3.org/2000/svg">
<path fill-rule="evenodd" clip-rule="evenodd" d="M12.9561 1.22286C13.1644 1.01458 13.5022 1.01458 13.7104 1.22286L15.8437 3.3562C16.052 3.56447 16.052 3.90216 15.8437 4.11044L11.6383 8.31591C11.5572 8.39698 11.4635 8.46444 11.361 8.51572L7.1718 10.6103C6.96646 10.713 6.71848 10.6727 6.55616 10.5104C6.39383 10.3481 6.35359 10.1001 6.45626 9.8948L8.55088 5.70555C8.60215 5.603 8.66962 5.50939 8.75069 5.42832L12.9561 1.22286ZM13.3333 2.35423L9.50494 6.18258L8.39747 8.3975L8.6691 8.66913L10.884 7.56166L14.7124 3.73332L13.3333 2.35423ZM10.6666 2.13332L9.59995 3.19998H5.22663C4.76979 3.19998 4.45923 3.2004 4.21919 3.22C3.98536 3.23911 3.86579 3.27374 3.78238 3.31624C3.58167 3.41851 3.4185 3.58169 3.31622 3.78239C3.27373 3.86581 3.2391 3.98538 3.22 4.2192C3.20038 4.45925 3.19997 4.76981 3.19997 5.22665V11.84C3.19997 12.2968 3.20038 12.6073 3.22 12.8475C3.2391 13.0813 3.27373 13.2008 3.31622 13.2843C3.4185 13.485 3.58167 13.6481 3.78238 13.7504C3.86579 13.7929 3.98536 13.8275 4.21919 13.8466C4.45923 13.8662 4.76979 13.8666 5.22663 13.8666H11.84C12.2968 13.8666 12.6073 13.8662 12.8474 13.8466C13.0812 13.8275 13.2008 13.7929 13.2842 13.7504C13.485 13.6481 13.6481 13.485 13.7504 13.2843C13.7929 13.2008 13.8275 13.0813 13.8466 12.8475C13.8662 12.6073 13.8666 12.2968 13.8666 11.84V7.46663L14.9333 6.39996V11.84V11.8621C14.9333 12.2913 14.9333 12.6456 14.9097 12.9343C14.8852 13.2341 14.8327 13.5096 14.7008 13.7685C14.4963 14.1699 14.1699 14.4963 13.7685 14.7008C13.5096 14.8327 13.2341 14.8852 12.9343 14.9097C12.6456 14.9333 12.2913 14.9333 11.862 14.9333H11.84H5.22663H5.2046C4.77529 14.9333 4.42096 14.9333 4.13233 14.9097C3.83254 14.8852 3.55697 14.8327 3.29812 14.7008C2.89671 14.4963 2.57035 14.1699 2.36582 13.7685C2.23393 13.5096 2.18137 13.2341 2.15687 12.9343C2.13329 12.6456 2.13329 12.2913 2.1333 11.8621V11.862V11.84V5.22665V5.20462V5.20459V5.20458C2.13329 4.77529 2.13329 4.42098 2.15687 4.13235C2.18137 3.83256 2.23393 3.55699 2.36582 3.29814C2.57035 2.89672 2.89671 2.57036 3.29812 2.36584C3.55697 2.23395 3.83254 2.18138 4.13233 2.15689C4.42096 2.13331 4.77527 2.13331 5.20458 2.13332H5.20461H5.22663H10.6666Z" fill="#FFF8BB"/>
</svg>
