<svg width="17" height="17" viewBox="0 0 17 17" fill="none" xmlns="http://www.w3.org/2000/svg">
<g id="Pencil 2" clip-path="url(#clip0_1_62586)">
<path id="Vector" fill-rule="evenodd" clip-rule="evenodd" d="M13.4561 1.72286C13.6644 1.51458 14.0022 1.51458 14.2104 1.72286L16.3437 3.8562C16.552 4.06447 16.552 4.40216 16.3437 4.61044L12.1383 8.81591C12.0572 8.89698 11.9635 8.96444 11.861 9.01572L7.6718 11.1103C7.46646 11.213 7.21848 11.1727 7.05616 11.0104C6.89383 10.8481 6.85359 10.6001 6.95626 10.3948L9.05088 6.20555C9.10215 6.103 9.16962 6.00939 9.25069 5.92832L13.4561 1.72286ZM13.8333 2.85423L10.0049 6.68258L8.89747 8.8975L9.1691 9.16913L11.384 8.06166L15.2124 4.23332L13.8333 2.85423ZM11.1666 2.63332L10.0999 3.69998H5.72663C5.26979 3.69998 4.95923 3.7004 4.71919 3.72C4.48536 3.73911 4.36579 3.77374 4.28238 3.81624C4.08167 3.91851 3.9185 4.08169 3.81622 4.28239C3.77373 4.36581 3.7391 4.48538 3.72 4.7192C3.70038 4.95925 3.69997 5.26981 3.69997 5.72665V12.34C3.69997 12.7968 3.70038 13.1073 3.72 13.3475C3.7391 13.5813 3.77373 13.7008 3.81622 13.7843C3.9185 13.985 4.08167 14.1481 4.28238 14.2504C4.36579 14.2929 4.48536 14.3275 4.71919 14.3466C4.95923 14.3662 5.26979 14.3666 5.72663 14.3666H12.34C12.7968 14.3666 13.1073 14.3662 13.3474 14.3466C13.5812 14.3275 13.7008 14.2929 13.7842 14.2504C13.985 14.1481 14.1481 13.985 14.2504 13.7843C14.2929 13.7008 14.3275 13.5813 14.3466 13.3475C14.3662 13.1073 14.3666 12.7968 14.3666 12.34V7.96663L15.4333 6.89996V12.34V12.3621C15.4333 12.7913 15.4333 13.1456 15.4097 13.4343C15.3852 13.7341 15.3327 14.0096 15.2008 14.2685C14.9963 14.6699 14.6699 14.9963 14.2685 15.2008C14.0096 15.3327 13.7341 15.3852 13.4343 15.4097C13.1456 15.4333 12.7913 15.4333 12.362 15.4333H12.34H5.72663H5.7046C5.27529 15.4333 4.92096 15.4333 4.63233 15.4097C4.33254 15.3852 4.05697 15.3327 3.79812 15.2008C3.39671 14.9963 3.07035 14.6699 2.86582 14.2685C2.73393 14.0096 2.68137 13.7341 2.65687 13.4343C2.63329 13.1456 2.63329 12.7913 2.6333 12.3621V12.362V12.34V5.72665V5.70462V5.70459V5.70458C2.63329 5.27529 2.63329 4.92098 2.65687 4.63235C2.68137 4.33256 2.73393 4.05699 2.86582 3.79814C3.07035 3.39672 3.39671 3.07036 3.79812 2.86584C4.05697 2.73395 4.33254 2.68138 4.63233 2.65689C4.92096 2.63331 5.27527 2.63331 5.70458 2.63332H5.70461H5.72663H11.1666Z" fill="#C1C8CD"/>
</g>
<defs>
<clipPath id="clip0_1_62586">
<rect width="16" height="16" fill="white" transform="translate(0.5 0.5)"/>
</clipPath>
</defs>
</svg>
