<svg width="20" height="20" viewBox="0 0 20 20" fill="none" xmlns="http://www.w3.org/2000/svg">
<path d="M5.83342 6.66663H3.33341C2.41675 6.66663 1.66675 5.91663 1.66675 4.99996V3.33329C1.66675 2.41663 2.41675 1.66663 3.33341 1.66663H5.83342C6.75008 1.66663 7.50008 2.41663 7.50008 3.33329V4.99996C7.50008 5.91663 6.75008 6.66663 5.83342 6.66663Z" fill="#94BA2C"/>
<path d="M17.3333 5.83333H14.3332C13.7832 5.83333 13.3333 5.38332 13.3333 4.83332V3.50001C13.3333 2.95001 13.7832 2.5 14.3332 2.5H17.3333C17.8833 2.5 18.3333 2.95001 18.3333 3.50001V4.83332C18.3333 5.38332 17.8833 5.83333 17.3333 5.83333Z" fill="#94BA2C"/>
<path d="M17.3333 12.0833H14.3332C13.7832 12.0833 13.3333 11.6333 13.3333 11.0833V9.75001C13.3333 9.20001 13.7832 8.75 14.3332 8.75H17.3333C17.8833 8.75 18.3333 9.20001 18.3333 9.75001V11.0833C18.3333 11.6333 17.8833 12.0833 17.3333 12.0833Z" fill="#94BA2C"/>
<path opacity="0.37" d="M13.3333 11.0416C13.675 11.0416 13.9583 10.7583 13.9583 10.4166C13.9583 10.075 13.675 9.79163 13.3333 9.79163H11.0417V4.79163H13.3333C13.675 4.79163 13.9583 4.50829 13.9583 4.16663C13.9583 3.82496 13.675 3.54163 13.3333 3.54163H7.5C7.15833 3.54163 6.875 3.82496 6.875 4.16663C6.875 4.50829 7.15833 4.79163 7.5 4.79163H9.79167V15C9.79167 16.2666 10.8167 17.2916 12.0833 17.2916H13.3333C13.675 17.2916 13.9583 17.0083 13.9583 16.6666C13.9583 16.325 13.675 16.0416 13.3333 16.0416H12.0833C11.5083 16.0416 11.0417 15.575 11.0417 15V11.0416H13.3333Z" fill="#94BA2C"/>
<path d="M17.3333 18.3333H14.3332C13.7832 18.3333 13.3333 17.8833 13.3333 17.3333V16C13.3333 15.45 13.7832 15 14.3332 15H17.3333C17.8833 15 18.3333 15.45 18.3333 16V17.3333C18.3333 17.8833 17.8833 18.3333 17.3333 18.3333Z" fill="#94BA2C"/>
</svg>
