<svg width="20" height="20" viewBox="0 0 20 20" fill="none" xmlns="http://www.w3.org/2000/svg">
<path d="M15.6084 12.225L12.15 15.6833C12.0167 15.8166 11.8917 16.075 11.8584 16.2583L11.6667 17.5833C11.6 18.0583 11.9334 18.4 12.4084 18.325L13.7334 18.1333C13.9167 18.1083 14.175 17.975 14.3084 17.8416L17.7667 14.3833C18.3584 13.7916 18.6417 13.0916 17.7667 12.2166C16.9 11.35 16.2084 11.625 15.6084 12.225Z" fill="#006ADC"/>
<path d="M15.1167 12.7167C15.4084 13.7667 16.2334 14.5833 17.2834 14.8833L15.1167 12.7167Z" fill="#006ADC"/>
<path opacity="0.4" d="M1.69147 12.1917C1.69147 12.2167 1.6748 12.25 1.6748 12.275C2.44147 13.8083 3.69148 15.0666 5.22481 15.825C5.24981 15.825 5.28314 15.8083 5.30814 15.8083C5.02481 14.8416 4.80814 13.85 4.64981 12.8583C3.64981 12.6916 2.65814 12.475 1.69147 12.1917Z" fill="#006ADC"/>
<path opacity="0.4" d="M15.8916 5.35836C15.1082 3.71669 13.7832 2.3917 12.1499 1.6167C12.4499 2.60837 12.6999 3.62504 12.8666 4.6417C13.8832 4.80837 14.8999 5.05002 15.8916 5.35836Z" fill="#006ADC"/>
<path opacity="0.4" d="M1.6084 5.35835C2.6084 5.05835 3.62508 4.80836 4.64174 4.6417C4.80841 3.65003 5.01674 2.6667 5.30007 1.70003C5.27507 1.70003 5.24173 1.68335 5.21673 1.68335C3.65007 2.45835 2.37507 3.76669 1.6084 5.35835Z" fill="#006ADC"/>
<path opacity="0.4" d="M11.5167 4.46661C11.3167 3.38328 11.0667 2.29996 10.7084 1.24996C10.6917 1.19163 10.6917 1.14163 10.6834 1.07497C10.0667 0.924966 9.41674 0.824951 8.75007 0.824951C8.07507 0.824951 7.4334 0.916633 6.8084 1.07497C6.80007 1.1333 6.8084 1.18329 6.79173 1.24996C6.44173 2.29996 6.1834 3.38328 5.9834 4.46661C7.82507 4.26661 9.67508 4.26661 11.5167 4.46661Z" fill="#006ADC"/>
<path opacity="0.4" d="M4.46686 5.98328C3.37519 6.18328 2.30019 6.43328 1.25019 6.79161C1.19186 6.80828 1.14185 6.80828 1.07519 6.81661C0.925185 7.43328 0.825195 8.08328 0.825195 8.74995C0.825195 9.42495 0.916852 10.0666 1.07519 10.6916C1.13352 10.6999 1.18352 10.6916 1.25019 10.7083C2.30019 11.0583 3.37519 11.3166 4.46686 11.5166C4.26686 9.67496 4.26686 7.82494 4.46686 5.98328Z" fill="#006ADC"/>
<path opacity="0.4" d="M16.4166 6.81661C16.3582 6.81661 16.3082 6.80828 16.2416 6.79161C15.1916 6.44161 14.1082 6.18328 13.0249 5.98328C13.2332 7.82494 13.2332 9.67495 13.0249 11.5083C14.1082 11.3083 15.1916 11.0583 16.2416 10.6999C16.2999 10.6833 16.3499 10.6916 16.4166 10.6833C16.5666 10.0583 16.6666 9.41661 16.6666 8.74161C16.6666 8.08327 16.5749 7.44161 16.4166 6.81661Z" fill="#006ADC"/>
<path opacity="0.4" d="M5.9834 13.0333C6.1834 14.125 6.4334 15.2 6.79173 16.25C6.8084 16.3083 6.80007 16.3583 6.8084 16.425C7.4334 16.575 8.07507 16.675 8.75007 16.675C9.41674 16.675 10.0667 16.5833 10.6834 16.425C10.6917 16.3666 10.6917 16.3166 10.7084 16.25C11.0584 15.2 11.3167 14.125 11.5167 13.0333C10.6001 13.1333 9.67507 13.2083 8.75007 13.2083C7.82507 13.2 6.90007 13.1333 5.9834 13.0333Z" fill="#006ADC"/>
<path opacity="0.4" d="M5.7915 5.79163C5.5415 7.75829 5.5415 9.74161 5.7915 11.7166C7.75817 11.9666 9.7415 11.9666 11.7165 11.7166C11.9665 9.74995 11.9665 7.76663 11.7165 5.79163C9.7415 5.54163 7.75817 5.54163 5.7915 5.79163Z" fill="#006ADC"/>
</svg>
