<svg width="20" height="20" viewBox="0 0 20 20" fill="none" xmlns="http://www.w3.org/2000/svg">
<path d="M4.97516 0.833374H2.52516C1.46683 0.833374 0.833496 1.46671 0.833496 2.52504V4.97504C0.833496 6.03337 1.46683 6.66671 2.52516 6.66671H4.97516C6.0335 6.66671 6.66683 6.03337 6.66683 4.97504V2.52504C6.66683 1.46671 6.0335 0.833374 4.97516 0.833374ZM5.39183 4.63337C5.60016 4.84171 5.60016 5.18337 5.39183 5.39171C5.2835 5.49171 5.14183 5.54171 5.0085 5.54171C4.87516 5.54171 4.74183 5.49171 4.6335 5.39171L3.74183 4.50837L2.87516 5.39171C2.76683 5.49171 2.6335 5.54171 2.4835 5.54171C2.35016 5.54171 2.21683 5.49171 2.1085 5.39171C1.90016 5.18337 1.90016 4.84171 2.1085 4.63337L3.00016 3.75004L2.11683 2.87504C1.9085 2.66671 1.9085 2.32504 2.11683 2.11671C2.32516 1.90837 2.66683 1.90837 2.87516 2.11671L3.74183 3.00004L4.62516 2.11671C4.8335 1.90837 5.17516 1.90837 5.3835 2.11671C5.59183 2.32504 5.59183 2.66671 5.3835 2.87504L4.5085 3.75004L5.39183 4.63337Z" fill="#FFA01C"/>
<path opacity="0.4" d="M13.8585 1.66663H6.4835C6.60016 1.90829 6.66683 2.19163 6.66683 2.52496V4.97496C6.66683 6.03329 6.0335 6.66663 4.97516 6.66663H2.52516C2.36683 6.66663 2.22516 6.64996 2.0835 6.61663V14.275C2.0835 16.5166 3.90016 18.3333 6.14183 18.3333H12.7835C12.9252 18.3333 13.0668 18.2833 13.1752 18.1666C14.4085 16.925 16.5585 14.7583 17.7668 13.5416C17.8752 13.4333 17.9168 13.3083 17.9168 13.1833V5.72496C17.9168 3.48329 16.1002 1.66663 13.8585 1.66663Z" fill="#FFA01C"/>
<path d="M17.9167 13.1834C17.9167 13.3084 17.875 13.4334 17.7667 13.5417C16.5584 14.7584 14.4084 16.925 13.175 18.1667C13.0667 18.2834 12.925 18.3334 12.7834 18.3334C12.5084 18.3334 12.2417 18.1167 12.2417 17.8V14.8834C12.2417 13.6667 13.275 12.6584 14.5417 12.6584C15.3334 12.65 16.4334 12.65 17.375 12.65C17.7 12.65 17.9167 12.9084 17.9167 13.1834Z" fill="#FFA01C"/>
<path d="M12.3166 10.5917H6.1333C5.7833 10.5917 5.5083 10.3083 5.5083 9.96667C5.5083 9.62501 5.79163 9.34167 6.1333 9.34167H12.3166C12.6666 9.34167 12.9416 9.62501 12.9416 9.96667C12.9416 10.3083 12.6666 10.5917 12.3166 10.5917Z" fill="#FFA01C"/>
<path d="M9.99997 13.6833H6.1333C5.7833 13.6833 5.5083 13.4 5.5083 13.0583C5.5083 12.7083 5.79163 12.4333 6.1333 12.4333H9.99997C10.35 12.4333 10.625 12.7167 10.625 13.0583C10.625 13.4 10.35 13.6833 9.99997 13.6833Z" fill="#FFA01C"/>
</svg>
