<svg width="20" height="20" viewBox="0 0 20 20" fill="none" xmlns="http://www.w3.org/2000/svg">
<path d="M18.3335 5.00003V7.01669C18.3335 8.33336 17.5002 9.16669 16.1835 9.16669H13.3335V3.34169C13.3335 2.41669 14.0918 1.65836 15.0168 1.66669C15.9252 1.67503 16.7585 2.04169 17.3585 2.64169C17.9585 3.25003 18.3335 4.08336 18.3335 5.00003Z" fill="#006ADC"/>
<path opacity="0.4" d="M1.6665 5.83329V17.5C1.6665 18.1916 2.44984 18.5833 2.99984 18.1666L4.42484 17.1C4.75817 16.85 5.22484 16.8833 5.52484 17.1833L6.90817 18.575C7.23317 18.9 7.7665 18.9 8.0915 18.575L9.4915 17.175C9.78317 16.8833 10.2498 16.85 10.5748 17.1L11.9998 18.1666C12.5498 18.575 13.3332 18.1833 13.3332 17.5V3.33329C13.3332 2.41663 14.0832 1.66663 14.9998 1.66663H5.83317H4.99984C2.49984 1.66663 1.6665 3.15829 1.6665 4.99996V5.83329Z" fill="#006ADC"/>
<path d="M10 10.2167H7.5C7.15833 10.2167 6.875 10.5 6.875 10.8417C6.875 11.1833 7.15833 11.4667 7.5 11.4667H10C10.3417 11.4667 10.625 11.1833 10.625 10.8417C10.625 10.5 10.3417 10.2167 10 10.2167Z" fill="#006ADC"/>
<path d="M7.5 8.13342H10C10.3417 8.13342 10.625 7.85009 10.625 7.50842C10.625 7.16676 10.3417 6.88342 10 6.88342H7.5C7.15833 6.88342 6.875 7.16676 6.875 7.50842C6.875 7.85009 7.15833 8.13342 7.5 8.13342Z" fill="#006ADC"/>
<path d="M4.97493 6.67505C4.50827 6.67505 4.1416 7.05005 4.1416 7.50838C4.1416 7.96672 4.5166 8.34172 4.97493 8.34172C5.43327 8.34172 5.80827 7.96672 5.80827 7.50838C5.80827 7.05005 5.43327 6.67505 4.97493 6.67505Z" fill="#006ADC"/>
<path d="M4.97493 10.0084C4.50827 10.0084 4.1416 10.3834 4.1416 10.8418C4.1416 11.3001 4.5166 11.6751 4.97493 11.6751C5.43327 11.6751 5.80827 11.3001 5.80827 10.8418C5.80827 10.3834 5.43327 10.0084 4.97493 10.0084Z" fill="#006ADC"/>
</svg>
