<svg width="15" height="15" viewBox="0 0 15 15" fill="none" xmlns="http://www.w3.org/2000/svg">
<g id="Pie Chart">
<path id="Shape" fill-rule="evenodd" clip-rule="evenodd" d="M1.8501 7.50043C1.8501 4.37975 4.37972 1.85001 7.5001 1.85001C10.6205 1.85001 13.1501 4.37975 13.1501 7.50043C13.1501 10.6211 10.6205 13.1509 7.5001 13.1509C4.37972 13.1509 1.8501 10.6211 1.8501 7.50043ZM7.5001 0.850006C3.82737 0.850006 0.850098 3.82753 0.850098 7.50043C0.850098 11.1733 3.82737 14.1509 7.5001 14.1509C11.1728 14.1509 14.1501 11.1733 14.1501 7.50043C14.1501 3.82753 11.1728 0.850006 7.5001 0.850006ZM7.0001 8.00001V3.12811C7.1642 3.10954 7.33103 3.10001 7.5001 3.10001C9.93015 3.10001 11.9001 5.07014 11.9001 7.50043C11.9001 7.66935 11.8906 7.83604 11.8721 8.00001H7.0001Z" fill="#C1C8CD"/>
</g>
</svg>
