<svg width="18" height="16" viewBox="0 0 18 16" fill="none" xmlns="http://www.w3.org/2000/svg">
<path d="M5.128 7.824C6.104 7.744 6.824 7.376 7.288 6.736C7.768 6.096 8.008 5.328 8.008 4.432C8.008 3.472 7.736 2.656 7.192 1.984C6.648 1.312 5.832 0.976 4.744 0.976H0.504V12H2.008V7.872H3.416L6.264 12H8.072L5.128 7.824ZM4.696 2.368C5.896 2.368 6.472 3.296 6.472 4.432C6.472 5.584 5.896 6.48 4.632 6.48H2.008V2.368H4.696ZM9.85288 4.528V15.632H11.3089V10.88C11.7729 11.712 12.8289 12.16 13.9169 12.16C14.9729 12.16 15.8529 11.808 16.5729 11.088C17.2929 10.368 17.6609 9.44 17.6609 8.288C17.6609 7.12 17.2929 6.176 16.5729 5.456C15.8529 4.736 14.9569 4.368 13.9169 4.368C12.8449 4.368 11.8049 4.864 11.3089 5.696V4.528H9.85288ZM11.3249 8.304C11.3249 7.536 11.5649 6.928 12.0289 6.48C12.5089 6.016 13.0849 5.792 13.7729 5.792C14.4609 5.792 15.0209 6.032 15.4849 6.496C15.9489 6.96 16.1889 7.568 16.1889 8.304C16.1889 9.76 15.1649 10.736 13.7729 10.736C13.1169 10.736 12.5569 10.528 12.0609 10.096C11.5649 9.664 11.3249 9.056 11.3249 8.304Z" fill="#006ADC"/>
</svg>
