<svg width="20" height="20" viewBox="0 0 20 20" fill="none" xmlns="http://www.w3.org/2000/svg">
<g id="Magnifying Glass">
<path id="Vector" fill-rule="evenodd" clip-rule="evenodd" d="M13.3332 8.66663C13.3332 11.244 11.2438 13.3333 8.6665 13.3333C6.08917 13.3333 3.99984 11.244 3.99984 8.66663C3.99984 6.08929 6.08917 3.99996 8.6665 3.99996C11.2438 3.99996 13.3332 6.08929 13.3332 8.66663ZM12.4116 13.3545C11.3852 14.1757 10.0832 14.6666 8.6665 14.6666C5.3528 14.6666 2.6665 11.9803 2.6665 8.66663C2.6665 5.35292 5.3528 2.66663 8.6665 2.66663C11.9802 2.66663 14.6665 5.35292 14.6665 8.66663C14.6665 10.0833 14.1756 11.3853 13.3544 12.4117L17.138 16.1952C17.3982 16.4556 17.3982 16.8777 17.138 17.1381C16.8776 17.3984 16.4554 17.3984 16.195 17.1381L12.4116 13.3545Z" fill="black"/>
</g>
</svg>
