<svg width="20" height="20" viewBox="0 0 20 20" fill="none" xmlns="http://www.w3.org/2000/svg">
<path d="M18.9591 14.5834C18.9591 14.925 18.6758 15.2084 18.3341 15.2084H12.5008V15.4167C12.5008 16.6667 11.7508 17.0834 10.8341 17.0834H5.83415C4.91748 17.0834 4.16748 16.6667 4.16748 15.4167V15.2084H1.66748C1.32581 15.2084 1.04248 14.925 1.04248 14.5834C1.04248 14.2417 1.32581 13.9584 1.66748 13.9584H4.16748V13.75C4.16748 12.5 4.91748 12.0834 5.83415 12.0834H10.8341C11.7508 12.0834 12.5008 12.5 12.5008 13.75V13.9584H18.3341C18.6758 13.9584 18.9591 14.2417 18.9591 14.5834Z" fill="#006ADC"/>
<path opacity="0.4" d="M18.9582 5.41663C18.9582 5.75829 18.6748 6.04163 18.3332 6.04163H15.8332V6.24996C15.8332 7.49996 15.0832 7.91663 14.1665 7.91663H9.1665C8.24984 7.91663 7.49984 7.49996 7.49984 6.24996V6.04163H1.6665C1.32484 6.04163 1.0415 5.75829 1.0415 5.41663C1.0415 5.07496 1.32484 4.79163 1.6665 4.79163H7.49984V4.58329C7.49984 3.33329 8.24984 2.91663 9.1665 2.91663H14.1665C15.0832 2.91663 15.8332 3.33329 15.8332 4.58329V4.79163H18.3332C18.6748 4.79163 18.9582 5.07496 18.9582 5.41663Z" fill="#006ADC"/>
</svg>
