<svg width="16" height="17" viewBox="0 0 16 17" fill="none" xmlns="http://www.w3.org/2000/svg">
<g id="External Link">
<path id="Vector" fill-rule="evenodd" clip-rule="evenodd" d="M3.19997 2.63336C2.61087 2.63336 2.1333 3.11093 2.1333 3.70003V13.3C2.1333 13.8891 2.61087 14.3667 3.19997 14.3667H12.8C13.3891 14.3667 13.8666 13.8891 13.8666 13.3V9.5667C13.8666 9.27215 13.6278 9.03336 13.3333 9.03336C13.0388 9.03336 12.8 9.27215 12.8 9.5667V13.3H3.19997V3.70003H6.9333C7.22785 3.70003 7.46663 3.46124 7.46663 3.1667C7.46663 2.87215 7.22785 2.63336 6.9333 2.63336H3.19997ZM13.7105 2.78958C13.7616 2.84071 13.8002 2.89964 13.8262 2.96255C13.8518 3.0245 13.8662 3.09235 13.8666 3.1635V3.1667V3.16722V6.3667C13.8666 6.66124 13.6278 6.90003 13.3333 6.90003C13.0388 6.90003 12.8 6.66124 12.8 6.3667V4.45428L7.31042 9.94382C7.10214 10.1521 6.76446 10.1521 6.55618 9.94382C6.34789 9.73554 6.34789 9.39785 6.55618 9.18958L12.0457 3.70003H10.1333C9.83875 3.70003 9.59997 3.46124 9.59997 3.1667C9.59997 2.87215 9.83875 2.63336 10.1333 2.63336H13.3332H13.3333C13.4056 2.63336 13.4745 2.64775 13.5375 2.67383C13.6004 2.69986 13.6593 2.73844 13.7105 2.78958Z" fill="#C1C8CD"/>
</g>
</svg>
