<svg width="16" height="17" viewBox="0 0 16 17" fill="none" xmlns="http://www.w3.org/2000/svg">
<g id="External Link">
<path id="Vector" fill-rule="evenodd" clip-rule="evenodd" d="M3.19997 2.63333C2.61087 2.63333 2.1333 3.1109 2.1333 3.7V13.3C2.1333 13.8891 2.61087 14.3667 3.19997 14.3667H12.8C13.3891 14.3667 13.8666 13.8891 13.8666 13.3V9.56667C13.8666 9.27212 13.6278 9.03333 13.3333 9.03333C13.0388 9.03333 12.8 9.27212 12.8 9.56667V13.3H3.19997V3.7H6.9333C7.22785 3.7 7.46663 3.46121 7.46663 3.16666C7.46663 2.87212 7.22785 2.63333 6.9333 2.63333H3.19997ZM13.7105 2.78954C13.7616 2.84068 13.8002 2.89961 13.8262 2.96252C13.8518 3.02447 13.8662 3.09232 13.8666 3.16346V3.16666V3.16719V6.36666C13.8666 6.66121 13.6278 6.9 13.3333 6.9C13.0388 6.9 12.8 6.66121 12.8 6.36666V4.45425L7.31042 9.94379C7.10214 10.1521 6.76446 10.1521 6.55618 9.94379C6.34789 9.73551 6.34789 9.39782 6.55618 9.18955L12.0457 3.7H10.1333C9.83875 3.7 9.59997 3.46121 9.59997 3.16666C9.59997 2.87212 9.83875 2.63333 10.1333 2.63333H13.3332H13.3333C13.4056 2.63333 13.4745 2.64772 13.5375 2.6738C13.6004 2.69983 13.6593 2.73841 13.7105 2.78954Z" fill="#5746AF"/>
</g>
</svg>
