<svg width="16" height="16" viewBox="0 0 16 16" fill="none" xmlns="http://www.w3.org/2000/svg">
<path fill-rule="evenodd" clip-rule="evenodd" d="M7.4793 1.25171L7.45838 1.30199L5.95425 4.91836C5.91105 5.02223 5.81336 5.0932 5.70123 5.10219L1.79705 5.41519L1.74276 5.41954L1.41123 5.44612L1.11043 5.47024C0.844438 5.49156 0.736581 5.82351 0.939242 5.99712L1.16841 6.19342L1.42101 6.4098L1.46237 6.44523L4.43694 8.99327C4.52238 9.06645 4.55969 9.18129 4.53359 9.29071L3.62481 13.1005L3.61217 13.1535L3.535 13.477L3.46498 13.7705C3.40307 14.0301 3.68544 14.2353 3.91317 14.0962L4.17069 13.9389L4.45453 13.7655L4.50101 13.7371L7.84353 11.6955C7.93954 11.6369 8.06028 11.6369 8.15628 11.6955L11.4988 13.7371L11.5453 13.7655L11.8291 13.9389L12.0866 14.0962C12.3144 14.2353 12.5967 14.0301 12.5348 13.7705L12.4648 13.477L12.3876 13.1535L12.375 13.1005L11.4662 9.29071C11.4401 9.18129 11.4774 9.06645 11.5629 8.99327L14.5374 6.44523L14.5788 6.4098L14.8314 6.19342L15.0606 5.99711C15.2632 5.82351 15.1554 5.49156 14.8894 5.47024L14.5886 5.44612L14.257 5.41954L14.2028 5.41519L10.2986 5.10219C10.1864 5.0932 10.0888 5.02223 10.0456 4.91836L8.54143 1.30199L8.52051 1.25171L8.39279 0.944609L8.2769 0.665992C8.17442 0.419604 7.82539 0.419605 7.72291 0.665992L7.60703 0.944609L7.4793 1.25171ZM7.99991 2.60397L6.87757 5.30239C6.69036 5.7525 6.26707 6.06004 5.78114 6.099L2.86797 6.33254L5.0875 8.23381C5.45772 8.55095 5.61941 9.04856 5.5063 9.52274L4.82819 12.3655L7.32228 10.8421C7.7383 10.588 8.26152 10.588 8.67754 10.8421L11.1716 12.3655L10.4935 9.52274C10.3804 9.04856 10.5421 8.55095 10.9123 8.23381L13.1318 6.33254L10.2187 6.099C9.73275 6.06004 9.30945 5.7525 9.12224 5.30239L7.99991 2.60397Z" fill="#E9F9EE"/>
</svg>
