<svg width="16" height="17" viewBox="0 0 16 17" fill="none" xmlns="http://www.w3.org/2000/svg">
<g id="Star">
<path id="Shape" fill-rule="evenodd" clip-rule="evenodd" d="M7.4793 1.75171L7.45838 1.80199L5.95425 5.41836C5.91105 5.52223 5.81336 5.5932 5.70123 5.60219L1.79705 5.91519L1.74276 5.91954L1.41123 5.94612L1.11043 5.97024C0.844438 5.99156 0.736581 6.32351 0.939242 6.49712L1.16841 6.69342L1.42101 6.9098L1.46237 6.94523L4.43694 9.49327C4.52238 9.56645 4.55969 9.68129 4.53359 9.79071L3.62481 13.6005L3.61217 13.6535L3.535 13.977L3.46498 14.2705C3.40307 14.5301 3.68544 14.7353 3.91317 14.5962L4.17069 14.4389L4.45453 14.2655L4.50101 14.2371L7.84353 12.1955C7.93954 12.1369 8.06028 12.1369 8.15628 12.1955L11.4988 14.2371L11.5453 14.2655L11.8291 14.4389L12.0866 14.5962C12.3144 14.7353 12.5967 14.5301 12.5348 14.2705L12.4648 13.977L12.3876 13.6535L12.375 13.6005L11.4662 9.79071C11.4401 9.68129 11.4774 9.56645 11.5629 9.49327L14.5374 6.94523L14.5788 6.9098L14.8314 6.69342L15.0606 6.49711C15.2632 6.32351 15.1554 5.99156 14.8894 5.97024L14.5886 5.94612L14.257 5.91954L14.2028 5.91519L10.2986 5.60219C10.1864 5.5932 10.0888 5.52223 10.0456 5.41836L8.54143 1.80199L8.52051 1.75171L8.39279 1.44461L8.2769 1.16599C8.17442 0.919604 7.82539 0.919605 7.72291 1.16599L7.60703 1.44461L7.4793 1.75171ZM7.99991 3.10397L6.87757 5.80239C6.69036 6.2525 6.26707 6.56004 5.78114 6.599L2.86797 6.83254L5.0875 8.73381C5.45772 9.05095 5.61941 9.54856 5.5063 10.0227L4.82819 12.8655L7.32228 11.3421C7.7383 11.088 8.26152 11.088 8.67754 11.3421L11.1716 12.8655L10.4935 10.0227C10.3804 9.54856 10.5421 9.05095 10.9123 8.73381L13.1318 6.83254L10.2187 6.599C9.73275 6.56004 9.30945 6.2525 9.12224 5.80239L7.99991 3.10397Z" fill="#30A46C"/>
</g>
</svg>
