<svg width="16" height="17" viewBox="0 0 16 17" fill="none" xmlns="http://www.w3.org/2000/svg">
<path fill-rule="evenodd" clip-rule="evenodd" d="M5.86662 1.56665C5.57207 1.56665 5.33328 1.80543 5.33328 2.09998C5.33328 2.39453 5.57207 2.63332 5.86662 2.63332H10.1333C10.4278 2.63332 10.6666 2.39453 10.6666 2.09998C10.6666 1.80543 10.4278 1.56665 10.1333 1.56665H5.86662ZM3.19995 4.23332C3.19995 3.93877 3.43874 3.69998 3.73328 3.69998H5.33328H10.6666H12.2666C12.5611 3.69998 12.8 3.93877 12.8 4.23332C12.8 4.52787 12.5611 4.76665 12.2666 4.76665H11.7333V13.3C11.7333 13.8891 11.2557 14.3667 10.6666 14.3667H5.33328C4.74419 14.3667 4.26662 13.8891 4.26662 13.3V4.76665H3.73328C3.43874 4.76665 3.19995 4.52787 3.19995 4.23332ZM5.33328 4.76665H10.6666V13.3H5.33328V4.76665Z" fill="#C1C8CD"/>
</svg>
