<svg width="16" height="17" viewBox="0 0 16 17" fill="none" xmlns="http://www.w3.org/2000/svg">
<path fill-rule="evenodd" clip-rule="evenodd" d="M5.86662 1.56668C5.57207 1.56668 5.33328 1.80546 5.33328 2.10001C5.33328 2.39456 5.57207 2.63335 5.86662 2.63335H10.1333C10.4278 2.63335 10.6666 2.39456 10.6666 2.10001C10.6666 1.80546 10.4278 1.56668 10.1333 1.56668H5.86662ZM3.19995 4.23335C3.19995 3.9388 3.43874 3.70001 3.73328 3.70001H5.33328H10.6666H12.2666C12.5611 3.70001 12.8 3.9388 12.8 4.23335C12.8 4.5279 12.5611 4.76668 12.2666 4.76668H11.7333V13.3C11.7333 13.8891 11.2557 14.3667 10.6666 14.3667H5.33328C4.74419 14.3667 4.26662 13.8891 4.26662 13.3V4.76668H3.73328C3.43874 4.76668 3.19995 4.5279 3.19995 4.23335ZM5.33328 4.76668H10.6666V13.3H5.33328V4.76668Z" fill="#E5484D"/>
</svg>
