<svg width="20" height="20" viewBox="0 0 20 20" fill="none" xmlns="http://www.w3.org/2000/svg">
<path d="M9.99992 9.99996C12.3011 9.99996 14.1666 8.13448 14.1666 5.83329C14.1666 3.53211 12.3011 1.66663 9.99992 1.66663C7.69873 1.66663 5.83325 3.53211 5.83325 5.83329C5.83325 8.13448 7.69873 9.99996 9.99992 9.99996Z" fill="#E5484D"/>
<path opacity="0.4" d="M10.0001 12.0834C5.82507 12.0834 2.42505 14.8834 2.42505 18.3334C2.42505 18.5667 2.60838 18.75 2.84172 18.75H17.1584C17.3918 18.75 17.5751 18.5667 17.5751 18.3334C17.5751 14.8834 14.1751 12.0834 10.0001 12.0834Z" fill="#E5484D"/>
<path d="M17.8583 12.2834C17.1083 11.5334 16.5166 11.7751 16.0083 12.2834L13.0583 15.2334C12.9416 15.3501 12.8333 15.5667 12.8083 15.7251L12.6499 16.85C12.5916 17.2584 12.875 17.5417 13.2833 17.4834L14.4083 17.3251C14.5666 17.3001 14.7916 17.1917 14.9 17.0751L17.8499 14.1251C18.3666 13.6251 18.6083 13.0334 17.8583 12.2834Z" fill="#E5484D"/>
</svg>
