<svg version="1.0" xmlns="http://www.w3.org/2000/svg"
 style="width: 18px;" viewBox="0 0 512.000000 338.000000"
 preserveAspectRatio="xMidYMid meet">

<g transform="translate(0.000000,338.000000) scale(0.100000,-0.100000)"
fill="#DC3D43" stroke="#F5D90A">
<path  d="M263 3346 c-23 -8 -57 -23 -77 -35 -56 -35 -133 -126 -158 -189 l-23
-57 0 -1375 0 -1375 23 -58 c31 -76 116 -168 190 -204 l57 -28 2285 0 2285 0
57 28 c74 36 159 128 190 204 l23 58 0 1370 c0 1291 -1 1373 -18 1421 -24 70
-74 138 -137 185 -100 75 100 69 -2404 68 -1823 0 -2259 -3 -2293 -13z m2453
-991 l121 -360 74 -6 c41 -4 212 -7 381 -8 446 -2 445 8 27 -301 l-306 -226
114 -360 c62 -197 113 -365 113 -371 0 -7 -11 -20 -25 -29 -30 -20 12 -45
-361 221 -158 113 -293 204 -299 201 -6 -2 -147 -101 -314 -220 -166 -119
-306 -216 -310 -216 -13 0 -51 31 -51 43 0 7 50 169 111 360 60 192 109 356
107 364 -2 8 -138 115 -303 237 -307 227 -325 244 -290 280 15 14 59 16 395
16 l378 0 118 353 c64 193 121 360 126 370 7 13 18 17 41 15 l32 -3 121 -360z"/>
</g>
</svg>
